<svg width="46" height="32" viewBox="0 0 46 32" fill="none" xmlns="http://www.w3.org/2000/svg">
<path d="M0 27.1239V30.2201C0 31.1324 0.739596 31.872 1.65193 31.872C2.56427 31.872 3.30387 31.1324 3.30387 30.2201V27.1239C3.30387 26.2116 2.56427 25.472 1.65193 25.472C0.739596 25.472 0 26.2116 0 27.1239Z" fill="#151517"/>
<path d="M5.33701 20.7239V30.2201C5.33701 31.1324 6.0766 31.872 6.98894 31.872C7.90128 31.872 8.64087 31.1324 8.64087 30.2201V20.7239C8.64087 19.8116 7.90128 19.072 6.98894 19.072C6.0766 19.072 5.33701 19.8116 5.33701 20.7239Z" fill="#151517"/>
<path d="M10.674 14.3239V30.2201C10.674 31.1324 11.4136 31.872 12.326 31.872C13.2383 31.872 13.9779 31.1324 13.9779 30.2201V14.3239C13.9779 13.4116 13.2383 12.672 12.326 12.672C11.4136 12.672 10.674 13.4116 10.674 14.3239Z" fill="#151517"/>
<path d="M16.011 8.05193V30.3481C16.011 31.2604 16.7506 32 17.663 32C18.5753 32 19.3149 31.2604 19.3149 30.3481V8.05193C19.3149 7.1396 18.5753 6.4 17.663 6.4C16.7506 6.4 16.011 7.1396 16.011 8.05193Z" fill="#151517"/>
<path d="M37.105 0H29.3476C24.9294 0 21.3481 3.58172 21.3481 8V30.3481C21.3481 31.2604 22.0876 32 23 32C23.9123 32 24.6519 31.2604 24.6519 30.3481V11.328C24.6519 6.90972 28.2348 3.328 32.653 3.328L37.105 3.328C39.0746 3.328 42.442 4.992 42.442 8.768C42.442 12.544 39.2652 14.336 37.105 14.336H32.2999C30.4619 14.336 28.9724 15.826 28.9724 17.664H37.105C41.6795 17.664 46 14.336 46 8.768C46 3.00641 41.2983 0 37.105 0Z" fill="#151517"/>
</svg>
